<svg width="48" height="48" viewBox="0 0 48 48" fill="none" xmlns="http://www.w3.org/2000/svg">
<path d="M19.04 27.42L14.88 29.74L19.04 32.12V35.76L10.38 30.76V28.92L19.04 23.86V27.42Z" fill="#4B5FFF"/>
<path d="M39.44 20.02H41.22V23.14H39.06L38.86 24.72H40.66V27.84H38.5C38.4067 28.4 38.3267 28.9333 38.26 29.44C38.2067 29.9333 38.14 30.4533 38.06 31H35.24L35.62 27.84H33.46C33.38 28.3733 33.3067 28.9 33.24 29.42C33.1867 29.94 33.1267 30.4667 33.06 31H30.14L30.58 27.84H28.78V24.72H31H30.94L31.14 23.14H29.34V20.02H31.52L31.94 16.84H34.78L34.4 20.02H36.58L37 16.84H39.86L39.44 20.02ZM33.8 24.72H36L36.2 23.14H34L33.8 24.72Z" fill="#4B5FFF"/>
<circle cx="23" cy="15" r="5" fill="#4B5FFF"/>
</svg>
