<svg width="247" height="49" viewBox="0 0 247 49" fill="none" xmlns="http://www.w3.org/2000/svg">
<g clip-path="url(#clip0_905_425)">
<path d="M55.2113 11.4536C55.2113 5.12797 50.0936 -2.76503e-07 43.7807 0C37.4677 2.76505e-07 32.3501 5.12797 32.3501 11.4536C32.3501 13.2598 32.7673 14.9683 33.5105 16.4877L7.38706 31.7983C6.62928 30.8367 5.45547 30.2196 4.1378 30.2196C1.85256 30.2196 0 32.0759 0 34.3657C0 36.6556 1.85256 38.5119 4.1378 38.5119C6.42305 38.5119 8.27561 36.6556 8.27561 34.3657C8.27561 33.9365 8.21052 33.5225 8.08969 33.1331L34.2604 17.7949C34.7586 18.5444 35.3426 19.2317 35.9983 19.8428L27.0554 29.8377C26.4981 29.5576 25.8689 29.4 25.203 29.4C22.9177 29.4 21.0652 31.2563 21.0652 33.5462C21.0652 35.836 22.9177 37.6923 25.203 37.6923C27.4882 37.6923 29.3408 35.836 29.3408 33.5462C29.3408 32.4692 28.931 31.4881 28.2591 30.7509L37.1662 20.796C37.8824 21.306 38.6596 21.7354 39.4849 22.0709L32.2491 40.8365C31.9206 40.7524 31.5763 40.7077 31.2216 40.7077C28.9364 40.7077 27.0838 42.564 27.0838 44.8538C27.0838 47.1437 28.9364 49 31.2216 49C33.5069 49 35.3594 47.1437 35.3594 44.8538C35.3594 43.4585 34.6715 42.2241 33.6169 41.4726L40.9153 22.5445C41.831 22.7813 42.7912 22.9073 43.7807 22.9073C50.0936 22.9073 55.2113 17.7793 55.2113 11.4536Z" fill="#4B5FFF"/>
<path d="M66.9453 3.27734V19.0878H69.4535V5.65241H77.1637V19.0878H79.6718V3.27734H66.9453Z" fill="#282729"/>
<path d="M112.685 16.7127H103.558V11.8462H110.711V9.47113H103.558V5.65241H112.546V3.27734H101.027V19.0878H112.685V16.7127Z" fill="#282729"/>
<path fill-rule="evenodd" clip-rule="evenodd" d="M146.094 8.46988C146.094 5.3497 143.679 3.27734 140.521 3.27734H133.112V19.0878H135.644V13.6624H140.451C143.656 13.6624 146.094 11.5901 146.094 8.46988ZM143.493 8.51645C143.493 10.2163 142.053 11.3339 140.335 11.3339H135.644V5.65241H140.335C142.053 5.65241 143.493 6.79337 143.493 8.51645Z" fill="#282729"/>
<path fill-rule="evenodd" clip-rule="evenodd" d="M178.961 14.2911C178.961 12.2188 177.614 10.6819 175.478 10.4957C177.011 10.2395 178.102 9.14514 178.102 7.35221C178.102 4.53473 176.383 3.27734 172.97 3.27734H166.514V19.0878H173.388C176.732 19.0878 178.961 17.551 178.961 14.2911ZM169.045 5.65241H172.645C174.34 5.65241 175.524 5.76883 175.617 7.53848C175.617 9.14514 174.549 9.58756 172.505 9.58756H169.045V5.65241ZM176.291 14.2445C176.291 15.8978 175.269 16.7127 173.202 16.7127H169.045V11.8462H173.202C175.269 11.8462 176.291 12.6379 176.291 14.2445Z" fill="#282729"/>
<path fill-rule="evenodd" clip-rule="evenodd" d="M204.35 3.27734L197.337 19.0878H200.286L201.796 15.3389H209.39L210.899 19.0878H213.849L206.835 3.27734H204.35ZM208.438 12.9639H202.748L205.605 6.23453L208.438 12.9639Z" fill="#282729"/>
<path fill-rule="evenodd" clip-rule="evenodd" d="M236.351 13.4063L232.449 19.0878H235.608L238.789 14.2678H243.411V19.0878H245.919V3.27734H238.998C235.19 3.27734 233.03 5.20999 233.03 8.79587C233.03 11.6599 234.772 13.0104 236.351 13.4063ZM243.434 11.9393H239.509C237.001 11.9393 235.631 11.0312 235.631 8.81916C235.631 6.63037 236.722 5.65241 239.231 5.65241H243.434V11.9393Z" fill="#282729"/>
<path d="M66.9453 29.5603V45.3708H69.5463V37.7566L77.4191 45.3708H80.833L72.1938 36.8485L80.2524 29.5603H76.8618L69.5463 36.1267V29.5603H66.9453Z" fill="#282729"/>
<path fill-rule="evenodd" clip-rule="evenodd" d="M80.4376 37.4539C80.368 41.9712 83.8979 45.7899 88.7052 45.7201C93.5125 45.7899 97.0657 41.9712 96.996 37.4539C97.0657 32.9366 93.5125 29.1179 88.7052 29.1878C83.8979 29.1179 80.368 32.9366 80.4376 37.4539ZM94.3718 37.4539C94.3718 40.7837 92.1888 43.3217 88.7052 43.3217C85.2681 43.3217 83.0387 40.7837 83.0387 37.4539C83.0387 34.1475 85.2681 31.5628 88.7052 31.5628C92.1888 31.5628 94.3718 34.1475 94.3718 37.4539Z" fill="#282729"/>
<path d="M99.08 37.4539C99.0103 41.9712 102.61 45.7899 107.789 45.7201C111.034 45.7201 112.672 44.7098 113.214 44.3752C113.265 44.3435 113.307 44.3178 113.339 44.2997V41.5753C111.992 42.7163 109.856 43.3217 107.789 43.3217C103.957 43.3217 101.704 40.7837 101.704 37.4539C101.704 34.1475 103.957 31.5628 107.789 31.5628C110.552 31.5628 112.759 33.0298 112.898 33.2626V30.5849C112.085 30.026 110.39 29.1878 107.789 29.1878C102.61 29.1179 99.0103 32.9366 99.08 37.4539Z" fill="#282729"/>
<path d="M116.477 29.5603V45.3708H118.985V33.379L122.84 39.2469H125.139L128.994 33.379V45.3708H131.502V29.5603H128.553L123.978 36.6157V36.5924L119.426 29.5603H116.477Z" fill="#282729"/>
<path d="M135.686 29.5603V45.3708H138.403L146.578 33.1695V45.3708H149.086V29.5603H146.346L138.194 41.5521V29.5603H135.686Z" fill="#282729"/>
<path d="M162.807 40.8768V45.3708H165.339V29.5603H162.807V38.525C161.693 38.6414 160.113 38.7812 158.488 38.7812C156.444 38.7812 154.749 38.199 154.749 35.3816V29.5603H152.217V35.3816C152.217 39.5961 154.935 41.2028 158.488 41.2028C160.183 41.2028 161.855 41.0165 162.807 40.8768Z" fill="#282729"/>
<path d="M181.182 42.9957H172.055V38.1292H179.208V35.7541H172.055V31.9354H181.042V29.5603H169.523V45.3708H181.182V42.9957Z" fill="#282729"/>
<path d="M182.676 37.4539C182.606 41.9712 186.206 45.7899 191.384 45.7201C194.63 45.7201 196.267 44.7098 196.81 44.3752C196.861 44.3435 196.903 44.3178 196.935 44.2997V41.5753C195.588 42.7163 193.451 43.3217 191.384 43.3217C187.553 43.3217 185.3 40.7837 185.3 37.4539C185.3 34.1475 187.553 31.5628 191.384 31.5628C194.148 31.5628 196.354 33.0298 196.494 33.2626V30.5849C195.681 30.026 193.985 29.1878 191.384 29.1878C186.206 29.1179 182.606 32.9366 182.676 37.4539Z" fill="#282729"/>
<path d="M200.072 29.5603V45.3708H202.673V37.7566L210.546 45.3708H213.96L205.321 36.8485L213.379 29.5603H209.989L202.673 36.1267V29.5603H200.072Z" fill="#282729"/>
<path fill-rule="evenodd" clip-rule="evenodd" d="M221.654 29.5603L214.64 45.3708H217.59L219.099 41.6219H226.693L228.203 45.3708H231.152L224.139 29.5603H221.654ZM225.741 39.2469H220.051L222.908 32.5175L225.741 39.2469Z" fill="#282729"/>
<path fill-rule="evenodd" clip-rule="evenodd" d="M236.469 39.6893L232.567 45.3708H235.726L238.907 40.5508H243.529V45.3708H246.037V29.5603H239.116C235.308 29.5603 233.148 31.493 233.148 35.0789C233.148 37.9429 234.89 39.2934 236.469 39.6893ZM243.552 38.2223H239.627C237.119 38.2223 235.749 37.3142 235.749 35.1021C235.749 32.9134 236.84 31.9354 239.348 31.9354H243.552V38.2223Z" fill="#282729"/>
</g>
<defs>
<clipPath id="clip0_905_425">
<rect width="246.035" height="49" fill="white"/>
</clipPath>
</defs>
</svg>
