<svg width="160" height="142" viewBox="0 0 160 142" fill="none" xmlns="http://www.w3.org/2000/svg">
<path d="M160 33.1922C160 14.8607 145.169 -8.01295e-07 126.875 0C108.58 8.01299e-07 93.7493 14.8607 93.7493 33.1922C93.7493 38.4264 94.9584 43.3776 97.112 47.7807L21.4074 92.1501C19.2114 89.3635 15.8097 87.5751 11.9912 87.5751C5.36864 87.5751 0 92.9545 0 99.5904C0 106.226 5.36864 111.606 11.9912 111.606C18.6137 111.606 23.9824 106.226 23.9824 99.5904C23.9824 98.3466 23.7937 97.1469 23.4436 96.0185L99.2851 51.5688C100.729 53.7408 102.421 55.7327 104.322 57.5035L78.4054 86.4684C76.7904 85.6568 74.967 85.2 73.0372 85.2C66.4147 85.2 61.046 90.5795 61.046 97.2154C61.046 103.851 66.4147 109.231 73.0372 109.231C79.6598 109.231 85.0284 103.851 85.0284 97.2154C85.0284 94.0943 83.8408 91.2512 81.8937 89.115L107.706 60.2659C109.782 61.7438 112.034 62.9882 114.426 63.9607L93.4566 118.343C92.5045 118.099 91.5069 117.969 90.479 117.969C83.8564 117.969 78.4878 123.349 78.4878 129.985C78.4878 136.621 83.8564 142 90.479 142C97.1015 142 102.47 136.621 102.47 129.985C102.47 125.941 100.477 122.364 97.4204 120.186L118.571 65.3329C121.225 66.0193 124.007 66.3844 126.875 66.3844C145.169 66.3844 160 51.5237 160 33.1922Z" fill="#4B5FFF"/>
</svg>
