<svg width="24" height="24" viewBox="0 0 24 24" fill="none" xmlns="http://www.w3.org/2000/svg">
<path d="M1.28747 10.916C1.28747 10.916 10.5753 7.22814 13.7964 5.92953C15.0313 5.41013 19.2188 3.74791 19.2188 3.74791C19.2188 3.74791 21.1516 3.02075 20.9905 4.78678C20.9367 5.51401 20.5073 8.05917 20.0778 10.8122C19.4335 14.7079 18.7356 18.9672 18.7356 18.9672C18.7356 18.9672 18.6282 20.1619 17.7156 20.3697C16.8029 20.5774 15.2996 19.6425 15.0313 19.4347C14.8165 19.2789 11.0047 16.9414 9.6089 15.7987C9.23308 15.487 8.80361 14.8638 9.66254 14.1365C11.5953 12.4224 13.9038 10.2928 15.2996 8.94226C15.9439 8.31891 16.5881 6.86452 13.9038 8.63055C10.0921 11.1758 6.33402 13.5652 6.33402 13.5652C6.33402 13.5652 5.47501 14.0846 3.86443 13.6171C2.25378 13.1496 0.374744 12.5263 0.374744 12.5263C0.374744 12.5263 -0.91366 11.7472 1.28747 10.916Z" fill="#282729"/>
</svg>
